<svg xmlns="http://www.w3.org/2000/svg" xmlns:xlink="http://www.w3.org/1999/xlink" width="7328" zoomAndPan="magnify" viewBox="0 0 5496 1391.999937" height="1856" preserveAspectRatio="xMidYMid meet" version="1.0"><defs><g/><clipPath id="dc3ab89836"><path d="M 571 334 L 979 334 L 979 953 L 571 953 Z M 571 334 " clip-rule="nonzero"/></clipPath><clipPath id="5badd82c7c"><path d="M 1022.066406 534.300781 L 802.769531 952.828125 L 420.78125 752.679688 L 640.078125 334.152344 Z M 1022.066406 534.300781 " clip-rule="nonzero"/></clipPath><clipPath id="593d6bc4eb"><path d="M 1174.332031 614.085938 L 894.46875 1148.207031 L 360.347656 868.339844 L 640.210938 334.21875 Z M 1174.332031 614.085938 " clip-rule="nonzero"/></clipPath><clipPath id="123553a212"><path d="M 446.023438 489.515625 L 1014.523438 489.515625 L 1014.523438 1058.015625 L 446.023438 1058.015625 Z M 446.023438 489.515625 " clip-rule="nonzero"/></clipPath></defs><g clip-path="url(#dc3ab89836)"><g clip-path="url(#5badd82c7c)"><g clip-path="url(#593d6bc4eb)"><path fill="#344f8d" d="M 978.144531 988.511719 C 771.53125 880.25 691.648438 624.507812 799.90625 417.894531 L 640.210938 334.21875 C 485.625 629.25 599.4375 993.617188 894.46875 1148.207031 Z M 978.144531 988.511719 " fill-opacity="1" fill-rule="nonzero"/></g></g></g><g clip-path="url(#123553a212)"><path fill="#202e4e" d="M 1014.523438 888.042969 C 794.617188 888.042969 616 709.425781 616 489.515625 L 446.023438 489.515625 C 446.023438 803.535156 700.503906 1058.015625 1014.523438 1058.015625 Z M 1014.523438 888.042969 " fill-opacity="1" fill-rule="nonzero"/></g><g fill="#005ad1" fill-opacity="1"><g transform="translate(331.744172, 1104.874759)"><g><path d="M 469.609375 11.355469 C 652.457031 11.355469 798.960938 -82.90625 857.449219 -238.496094 L 698.449219 -296.414062 C 662.109375 -201.019531 575.226562 -145.367188 469.609375 -145.367188 C 328.214844 -145.367188 219.757812 -244.742188 219.757812 -410.554688 C 219.757812 -576.363281 328.214844 -675.167969 469.609375 -675.167969 C 575.226562 -675.167969 662.109375 -620.089844 698.449219 -524.691406 L 857.449219 -582.609375 C 798.960938 -738.199219 652.457031 -831.894531 469.609375 -831.894531 C 228.273438 -831.894531 49.96875 -668.355469 49.96875 -410.554688 C 49.96875 -152.75 228.273438 11.355469 469.609375 11.355469 Z M 469.609375 11.355469 "/></g></g></g><g fill="#1e2127" fill-opacity="1"><g transform="translate(1376.078757, 1104.874759)"><g><path d="M 638.828125 0 L 745.015625 0 L 450.300781 -799.527344 L 328.78125 -799.527344 L 34.070312 0 L 140.257812 0 L 208.398438 -191.363281 L 570.117188 -191.363281 Z M 240.765625 -281.082031 L 389.542969 -697.316406 L 538.316406 -281.082031 Z M 240.765625 -281.082031 "/></g></g></g><g fill="#1e2127" fill-opacity="1"><g transform="translate(2308.650055, 1104.874759)"><g><path d="M 227.136719 -92.558594 L 227.136719 -799.527344 L 125.492188 -799.527344 L 125.492188 0 L 504.816406 0 L 504.816406 -92.558594 Z M 227.136719 -92.558594 "/></g></g></g><g fill="#1e2127" fill-opacity="1"><g transform="translate(2999.327332, 1104.874759)"><g><path d="M 125.492188 0 L 227.136719 0 L 227.136719 -799.527344 L 125.492188 -799.527344 Z M 125.492188 0 "/></g></g></g><g fill="#1e2127" fill-opacity="1"><g transform="translate(3505.46106, 1104.874759)"><g><path d="M 504.816406 -417.367188 C 568.980469 -448.03125 604.1875 -511.0625 604.1875 -587.722656 C 604.1875 -712.648438 510.492188 -799.527344 367.964844 -799.527344 L 125.492188 -799.527344 L 125.492188 0 L 436.671875 0 C 574.660156 0 662.675781 -89.71875 662.675781 -216.917969 C 662.675781 -327.078125 599.078125 -393.515625 504.816406 -417.367188 Z M 508.789062 -581.476562 C 508.789062 -508.789062 459.386719 -449.167969 386.136719 -449.167969 L 223.730469 -449.167969 L 223.730469 -710.375 L 367.398438 -710.375 C 455.980469 -710.375 508.789062 -654.160156 508.789062 -581.476562 Z M 419.636719 -90.289062 L 223.730469 -90.289062 L 223.730469 -365.125 L 412.257812 -365.125 C 508.222656 -365.125 563.871094 -304.933594 563.871094 -227.136719 C 563.871094 -153.320312 511.0625 -90.289062 419.636719 -90.289062 Z M 419.636719 -90.289062 "/></g></g></g><g fill="#1e2127" fill-opacity="1"><g transform="translate(4385.22451, 1104.874759)"><g><path d="M 638.828125 0 L 745.015625 0 L 450.300781 -799.527344 L 328.78125 -799.527344 L 34.070312 0 L 140.257812 0 L 208.398438 -191.363281 L 570.117188 -191.363281 Z M 240.765625 -281.082031 L 389.542969 -697.316406 L 538.316406 -281.082031 Z M 240.765625 -281.082031 "/></g></g></g></svg>